<svg id="Group_3822" data-name="Group 3822" xmlns="http://www.w3.org/2000/svg" width="752" height="209.071" viewBox="0 0 752 209.071">
  <path id="Path_14138" data-name="Path 14138" d="M0,61.913A43.011,43.011,0,0,1,3.54,44.555,45.464,45.464,0,0,1,27.366,20.707a42.984,42.984,0,0,1,17.375-3.539h68.469V47.033H44.741A14.77,14.77,0,0,0,34.13,51.4a14.556,14.556,0,0,0-3.12,4.683,14.8,14.8,0,0,0-1.12,5.829,15.511,15.511,0,0,0,1.1,5.931,15.873,15.873,0,0,0,3.118,4.787,15.866,15.866,0,0,0,4.787,3.12,14.843,14.843,0,0,0,5.827,1.144H74.614A44.727,44.727,0,0,1,119.34,121.64a43.023,43.023,0,0,1-3.539,17.378,44.478,44.478,0,0,1-9.575,14.256,45.146,45.146,0,0,1-14.258,9.575,43.02,43.02,0,0,1-17.375,3.539H8.334V136.522H74.592a14.832,14.832,0,0,0,5.824-1.144,14.555,14.555,0,0,0,4.683-3.12,15.179,15.179,0,0,0,3.224-16.443,15.688,15.688,0,0,0-7.907-7.907,14.832,14.832,0,0,0-5.824-1.144H44.741a42.984,42.984,0,0,1-17.375-3.539A46.808,46.808,0,0,1,13.11,93.652,46.838,46.838,0,0,1,3.54,79.395,43.76,43.76,0,0,1,0,61.913m180.323,77.209a18.975,18.975,0,0,0,3.313.728q1.657.1,3.313.1a27.906,27.906,0,0,0,8.033-1.148,29.2,29.2,0,0,0,7.179-3.224,27.07,27.07,0,0,0,10.418-12.071l20.811,20.917A57.718,57.718,0,0,1,213.1,162.1a52.769,52.769,0,0,1-12.588,4.681,54.8,54.8,0,0,1-13.53,1.657,56.262,56.262,0,0,1-40.269-16.565,57.714,57.714,0,0,1-12.147-18.519,61.5,61.5,0,0,1-4.472-23.743,63.1,63.1,0,0,1,4.472-24.139,54.253,54.253,0,0,1,30.281-30.59,57.79,57.79,0,0,1,22.163-4.268,56.912,56.912,0,0,1,37.458,14.151,55.046,55.046,0,0,1,9.133,10.16ZM194.89,80.538a16.389,16.389,0,0,0-3.953-.939,35.33,35.33,0,0,0-3.955-.209A28.2,28.2,0,0,0,175.94,81.6a26.159,26.159,0,0,0-8.933,6.024,29.034,29.034,0,0,0-5.931,9.575,33.683,33.683,0,0,0-2.209,12.484q0,1.562.1,3.539.212,1.976.52,4.059.414,1.976.939,3.866a14.583,14.583,0,0,0,1.352,3.311Zm81.686,85.843H247.962V10.612h28.613Zm50.363,0H298.325V10.612H326.95v98.228L369.3,55.149h32.677l-36.938,46.382,36.938,64.828H369.288L346.71,125.882,326.95,152.13Zm119.767-141.7a17.664,17.664,0,0,1-1.563,7.388,18.892,18.892,0,0,1-4.057,6.035,21.067,21.067,0,0,1-6.14,4.057,18.7,18.7,0,0,1-7.388,1.459,19.474,19.474,0,0,1-7.494-1.459,21.416,21.416,0,0,1-6.035-4.057,21.432,21.432,0,0,1-4.057-6.035,18.772,18.772,0,0,1-1.452-7.388,18.456,18.456,0,0,1,1.457-7.283,19.615,19.615,0,0,1,4.059-6.035A18.887,18.887,0,0,1,420.071,7.3a18.328,18.328,0,0,1,7.492-1.561A17.689,17.689,0,0,1,434.951,7.3a18.578,18.578,0,0,1,6.14,4.059,17.455,17.455,0,0,1,4.059,6.035,17.389,17.389,0,0,1,1.557,7.283m-4.909,141.7H413.2V54.938h28.6Zm57.855,0H471.261V83.243H457.425V54.94h13.836V49.633a48.928,48.928,0,0,1,3.866-19.352,49.775,49.775,0,0,1,10.716-15.714A50.818,50.818,0,0,1,501.761,3.953,47.846,47.846,0,0,1,521.1,0h21.33V28.3H521.1a21.792,21.792,0,0,0-8.531,1.657,20.252,20.252,0,0,0-6.764,4.472,21.589,21.589,0,0,0-6.14,15.2V54.94h34.858v28.3H499.67Zm74.4,42.456V180.223l15.814.211a24.053,24.053,0,0,0,8.012-1.352,28.023,28.023,0,0,0,12.9-9.47,29.74,29.74,0,0,0,4.059-7.072q-4.683,1.976-9.575,3.953a25.178,25.178,0,0,1-9.679,1.976,51.339,51.339,0,0,1-19.354-3.644,48.833,48.833,0,0,1-15.919-10.3A49.576,49.576,0,0,1,549.6,138.183a58.108,58.108,0,0,1-3.866-21.643V54.94h28.3v61.6a29.845,29.845,0,0,0,1.657,10.407,22.823,22.823,0,0,0,4.683,7.388,18.919,18.919,0,0,0,6.764,4.372,24.208,24.208,0,0,0,8.427,1.459,17.754,17.754,0,0,0,8.22-1.976,23.761,23.761,0,0,0,6.87-5.411,25.861,25.861,0,0,0,4.577-7.494,23.857,23.857,0,0,0,1.657-8.74V54.94h28.657v97.394a56.049,56.049,0,0,1-4.579,22.087,56.853,56.853,0,0,1-12.279,18,57.735,57.735,0,0,1-18,12.175A54.785,54.785,0,0,1,588.6,209.07Z" transform="translate(0 0)" fill="#1381ff"/>
  <path id="Path_14139" data-name="Path 14139" d="M363.645,108.656H335.235v-28.4H305.685v-28.3h29.551V21.25h28.409v30.7h29.446v28.3H363.645Z" transform="translate(358.909 24.951)" fill="#fff23e"/>
</svg>
