<svg xmlns="http://www.w3.org/2000/svg" width="712.16" height="151.032" viewBox="0 0 712.16 151.032">
  <g id="DeepSeek_logo" transform="translate(0 0)">
    <path id="Path_1" data-name="Path 1" d="M203.08,12.676c-2.174-1.065-3.11.965-4.381,2a9.659,9.659,0,0,0-1.171,1.164c-3.177,3.393-6.89,5.623-11.739,5.356a22.855,22.855,0,0,0-18.5,7.253c-1.137-6.687-4.916-10.68-10.669-13.242-3.01-1.331-6.053-2.662-8.161-5.557-1.472-2.062-1.873-4.358-2.609-6.621-.469-1.364-.937-2.762-2.509-2.995C141.64-.234,140.971,1.2,140.3,2.395a31.219,31.219,0,0,0-3.612,15.737c.234,12.277,5.418,22.058,15.719,29.012a2.173,2.173,0,0,1,1.1,2.762c-.7,2.4-1.539,4.724-2.274,7.12-.469,1.531-1.171,1.863-2.81,1.2a47.255,47.255,0,0,1-14.85-10.08c-7.325-7.087-13.947-14.905-22.208-21.027-1.94-1.431-3.88-2.761-5.887-4.026-8.428-8.184,1.1-14.905,3.311-15.7,2.308-.832.8-3.694-6.656-3.66S87.858,6.255,79.163,9.582a26.109,26.109,0,0,1-3.98,1.164,82.067,82.067,0,0,0-24.65-.865c-16.121,1.8-29,9.416-38.462,22.425C.7,47.943-1.977,65.709,1.3,84.241c3.445,19.53,13.412,35.7,28.73,48.343,15.887,13.108,34.182,19.53,55.052,18.3,12.676-.732,26.79-2.428,42.71-15.9,4.013,2,8.228,2.794,15.218,3.393a49.913,49.913,0,0,0,14.582-1.1c6.288-1.331,5.853-7.154,3.579-8.218-18.429-8.584-14.382-5.09-18.061-7.919,9.365-11.079,23.479-22.591,29-59.888a34.63,34.63,0,0,0,0-7.22c-.034-1.464.3-2.029,1.973-2.2a35.687,35.687,0,0,0,13.211-4.059c11.94-6.521,16.756-17.234,17.893-30.077.168-1.963-.033-3.993-2.107-5.024ZM99.03,128.258c-17.86-14.04-26.522-18.665-30.1-18.465-3.345.2-2.742,4.026-2.007,6.522a23.9,23.9,0,0,0,3.177,6.321c.97,1.431,1.639,3.56-.97,5.157-5.753,3.56-15.753-1.2-16.222-1.431-11.639-6.854-21.371-15.9-28.228-28.28a86.349,86.349,0,0,1-11.1-38.328c-.167-3.293.8-4.459,4.08-5.057a40.151,40.151,0,0,1,13.077-.333C48.962,57.026,64.48,65.177,77.491,78.086c7.425,7.353,13.044,16.137,18.83,24.72,6.154,9.116,12.776,17.8,21.2,24.92a67.457,67.457,0,0,0,7.625,5.789c-6.856.765-18.295.932-26.121-5.257ZM107.592,73.2a2.62,2.62,0,0,1,2.643-2.628,2.569,2.569,0,0,1,.9.165,2.347,2.347,0,0,1,.97.632,2.585,2.585,0,0,1,.736,1.83,2.619,2.619,0,0,1-2.642,2.628,2.592,2.592,0,0,1-2.609-2.628Zm26.59,13.641a15.482,15.482,0,0,1-5.05,1.364,10.653,10.653,0,0,1-6.823-2.163c-2.341-1.963-4.014-3.06-4.716-6.488a14.777,14.777,0,0,1,.134-5.024c.6-2.795-.067-4.591-2.04-6.222a8.865,8.865,0,0,0-5.887-1.7,4.78,4.78,0,0,1-2.174-.666,2.165,2.165,0,0,1-.97-3.061,9.673,9.673,0,0,1,1.639-1.8c3.044-1.731,6.556-1.165,9.8.133,3.01,1.231,5.285,3.494,8.562,6.687a54.744,54.744,0,0,1,5.853,7.819,32.577,32.577,0,0,1,3.813,7.253c.569,1.664-.167,3.028-2.141,3.859Z" transform="translate(0 0)" fill="#4d6bfe"/>
    <path id="Path_2" data-name="Path 2" d="M275.945,28.5c-4.732,0-9.5,1.039-12.6,3.962-.269.25-.519.519-.769.789h-2.27V28.5H247.863v74.783h12.445V56.814c0-4.789,1.039-9.6,3.924-12.733,2.885-3.154,7.309-4.27,11.714-4.27,4.385,0,8.829,1.116,11.714,4.27,2.885,3.135,3.924,7.944,3.924,12.733,0,4.77-1.039,9.579-3.924,12.714-2.885,3.154-7.328,4.27-11.714,4.27h-7.078v11.31h7.078c7.328,0,14.7-1.866,19.5-7.1s6.52-13.233,6.52-21.2-1.712-15.984-6.52-21.215-12.175-7.1-19.5-7.1ZM102.107,58.776c0,4.789-1.039,9.6-3.924,12.733s-7.309,4.27-11.714,4.27-8.829-1.135-11.714-4.27-3.924-7.944-3.924-12.733c0-4.77,1.039-9.6,3.924-12.733s7.309-4.251,11.714-4.251h7.078V30.482H86.469c-7.328,0-14.7,1.866-19.5,7.1s-6.52,13.233-6.52,21.2,1.712,15.984,6.52,21.215,12.175,7.1,19.5,7.1c4.731,0,9.482-1.058,12.6-3.962a9.613,9.613,0,0,0,.75-.789h2.289v4.751h12.445v-74.8H102.107V58.776ZM149.961,28.5c-7.617,0-15.272,1.943-20.273,7.348-4.982,5.4-6.771,13.695-6.771,21.946,0,8.232,1.789,16.541,6.771,21.946,5,5.4,12.656,7.348,20.273,7.348s15.272-1.943,20.273-7.348A24.614,24.614,0,0,0,175.6,69.489h-12.31a12.267,12.267,0,0,1-1.154,1.481c-3,3.251-7.6,4.4-12.175,4.4-4.558,0-9.156-1.154-12.156-4.4s-4.078-8.232-4.078-13.175,1.077-9.925,4.078-13.175,7.6-4.4,12.156-4.4c4.578,0,9.175,1.154,12.175,4.4a16.238,16.238,0,0,1,3.751,8.636h-22v9.078h33.141V57.8c0-8.251-1.789-16.541-6.79-21.946-4.982-5.4-12.656-7.348-20.273-7.348Zm62.473,0c-7.6,0-15.272,1.943-20.254,7.348-5,5.4-6.79,13.695-6.79,21.946,0,8.232,1.789,16.541,6.79,21.946,4.982,5.4,12.656,7.348,20.254,7.348,7.617,0,15.272-1.943,20.273-7.348a24.394,24.394,0,0,0,5.366-10.252h-12.31a12.267,12.267,0,0,1-1.154,1.481c-3,3.251-7.6,4.4-12.156,4.4-4.578,0-9.175-1.154-12.175-4.4S196.2,62.738,196.2,57.8s1.077-9.925,4.077-13.175,7.6-4.4,12.175-4.4c4.558,0,9.156,1.154,12.156,4.4a16.238,16.238,0,0,1,3.751,8.636h-22v9.078H239.5V57.8c0-8.251-1.789-16.541-6.79-21.946-4.982-5.4-12.656-7.348-20.273-7.348ZM357.651,56.833C352.669,53.64,345,52.506,337.4,52.506h.269c-3.251,0-6.52-.442-8.655-1.693a5.81,5.81,0,0,1,0-10.04c2.135-1.25,5.4-1.693,8.655-1.693s6.52.462,8.636,1.693a5.543,5.543,0,0,1,2.9,5.02h12.675c0-4.866-1.635-9.752-6.155-12.944S344.283,28.5,337.4,28.5s-13.81,1.154-18.33,4.347-6.136,8.078-6.136,12.944,1.615,9.771,6.136,12.944c4.52,3.193,11.444,4.347,18.33,4.347,3.578,0,7.5.442,9.848,1.673a5.544,5.544,0,0,1,0,10.059c-2.347,1.231-5.962,1.673-9.559,1.673-3.578,0-7.193-.442-9.559-1.673a5.484,5.484,0,0,1-3.193-5.02h-14.6c0,4.847,1.789,9.752,6.79,12.944s12.656,4.328,20.273,4.328c7.6,0,15.272-1.135,20.254-4.328,5-3.193,6.79-8.1,6.79-12.944,0-4.866-1.789-9.771-6.79-12.964ZM399.872,28.5c-7.617,0-15.272,1.943-20.273,7.348-4.982,5.4-6.79,13.695-6.79,21.946,0,8.232,1.808,16.541,6.79,21.946,5,5.4,12.656,7.348,20.273,7.348s15.272-1.943,20.273-7.348a24.362,24.362,0,0,0,5.347-10.252H413.2a12.23,12.23,0,0,1-1.154,1.481c-3,3.251-7.6,4.4-12.175,4.4-4.558,0-9.175-1.154-12.156-4.4-3-3.251-4.077-8.232-4.077-13.175s1.077-9.925,4.078-13.175c2.981-3.251,7.6-4.4,12.156-4.4,4.578,0,9.175,1.154,12.175,4.4a16.239,16.239,0,0,1,3.751,8.636H393.774v9.078h33.16V57.8c0-8.251-1.789-16.541-6.79-21.946S407.489,28.5,399.872,28.5Zm62.473,0c-7.617,0-15.272,1.943-20.273,7.348-4.982,5.4-6.79,13.695-6.79,21.946,0,8.232,1.808,16.541,6.79,21.946,5,5.4,12.656,7.348,20.273,7.348s15.272-1.943,20.273-7.348a24.616,24.616,0,0,0,5.367-10.252h-12.31a12.263,12.263,0,0,1-1.154,1.481c-3,3.251-7.6,4.4-12.175,4.4-4.558,0-9.175-1.154-12.156-4.4-3-3.251-4.078-8.232-4.078-13.175s1.077-9.925,4.078-13.175c2.981-3.251,7.6-4.4,12.156-4.4,4.578,0,9.175,1.154,12.175,4.4a16.238,16.238,0,0,1,3.751,8.636h-22v9.078h33.14V57.8c0-8.251-1.789-16.541-6.79-21.946S469.962,28.5,462.345,28.5Zm35.41-18.83H510.2V87.089H497.755Zm38.7,21.427L516.025,56.045l20.427,31.044h15.426L531.451,56.045,551.878,31.1H536.452Z" transform="translate(160.282 25.645)" fill="#4d6bfe"/>
  </g>
</svg>
