<svg xmlns="http://www.w3.org/2000/svg" width="702.155" height="241.648" viewBox="0 0 702.155 241.648">
  <g id="Logo_Google_Analytics" transform="translate(0 -0.002)">
    <g id="g6562" transform="translate(251.024 0.213)">
      <path id="path6536" d="M126.362,53.539c0,17.9-14,31.085-31.183,31.085S64,71.436,64,53.539c0-18.023,14-31.085,31.183-31.085S126.362,35.516,126.362,53.539Zm-13.65,0c0-11.184-8.115-18.836-17.532-18.836S77.646,42.356,77.646,53.539c0,11.072,8.115,18.836,17.532,18.836S112.711,64.6,112.711,53.539Z" transform="translate(35.354 11.923)" fill="#747474"/>
      <path id="path6538" d="M169.475,53.539c0,17.9-14,31.085-31.183,31.085s-31.183-13.188-31.183-31.085c0-18.009,14-31.085,31.183-31.085S169.475,35.516,169.475,53.539Zm-13.65,0c0-11.184-8.115-18.836-17.532-18.836S120.76,42.356,120.76,53.539c0,11.072,8.115,18.836,17.532,18.836S155.824,64.6,155.824,53.539Z" transform="translate(59.512 11.923)" fill="#747474"/>
      <path id="path6540" d="M209.795,24.333V80.139c0,22.956-13.538,32.332-29.543,32.332A29.6,29.6,0,0,1,152.7,94.154l11.884-4.947c2.116,5.059,7.3,11.03,15.654,11.03,10.245,0,16.593-6.321,16.593-18.219V77.547h-.476c-3.055,3.77-8.941,7.063-16.369,7.063-15.542,0-29.781-13.538-29.781-30.959,0-17.546,14.239-31.2,29.781-31.2,7.414,0,13.3,3.293,16.369,6.951h.476V24.347h12.964Zm-12,29.319c0-10.946-7.3-18.948-16.593-18.948-9.418,0-17.308,8-17.308,18.948,0,10.833,7.89,18.724,17.308,18.724C190.5,72.375,197.8,64.485,197.8,53.652Z" transform="translate(83.659 11.923)" fill="#747474"/>
      <path id="path6542" d="M206.874,2.695v91.1H193.56V2.695Z" transform="translate(107.953 0.851)" fill="#747474"/>
      <path id="path6544" d="M251.917,63.775l10.6,7.063a30.94,30.94,0,0,1-25.9,13.776c-17.659,0-30.846-13.65-30.846-31.085,0-18.485,13.3-31.085,29.319-31.085,16.131,0,24.021,12.837,26.6,19.775l1.415,3.532-41.554,17.21c3.181,6.237,8.129,9.418,15.066,9.418s11.772-3.42,15.3-8.605ZM219.3,52.591l27.777-11.534c-1.528-3.882-6.124-6.587-11.534-6.587C228.61,34.47,218.954,40.595,219.3,52.591Z" transform="translate(114.792 11.918)" fill="#747474"/>
      <path id="path6546" d="M49.277,57.8V44.611H93.717a43.7,43.7,0,0,1,.659,7.96c0,9.894-2.7,22.129-11.422,30.846-8.479,8.829-19.312,13.538-33.663,13.538C22.691,96.956.323,75.289.323,48.689S22.691.422,49.291.422a45.992,45.992,0,0,1,33.075,13.3L73.06,23.028A33.616,33.616,0,0,0,49.277,13.61c-19.424,0-34.616,15.654-34.616,35.079S29.852,83.768,49.277,83.768c12.6,0,19.775-5.059,24.372-9.656,3.728-3.728,6.18-9.054,7.148-16.327Z" transform="translate(-0.323 -0.422)" fill="#747474"/>
    </g>
    <g id="g6607" transform="translate(250.084 131.612)">
      <g id="use3812" transform="translate(0 0.883)">
        <path id="path1196" d="M38.335-40.514,24.649-2.657H52.572l-13.8-37.857Zm-25.5,70.636H.92l31.566-83.88H44.736L76.3,30.122H64.382L56.325,7.386H21.007Zm0,0" transform="translate(-0.92 53.758)" fill="#747474"/>
      </g>
      <g id="use3814" transform="translate(80.816 25.495)">
        <path id="path1199" d="M4.173-36.108H14.548v7.947h.441a18.61,18.61,0,0,1,7.505-6.953,21.7,21.7,0,0,1,10.6-2.87c7.064,0,12.472,2.042,16.224,6.07,3.808,3.973,5.739,9.685,5.739,17.107V21.284H44.237V-14.034Q43.906-28.148,30.11-28.162a13.538,13.538,0,0,0-10.816,5.3A18.792,18.792,0,0,0,14.99-10.5V21.284H4.173Zm0,0" transform="translate(-4.173 37.984)" fill="#747474"/>
      </g>
      <g id="use3818" transform="translate(140.509 25.495)">
        <path id="path1202" d="M13.269,3.735A8.689,8.689,0,0,0,16.8,10.8a13.112,13.112,0,0,0,8.388,2.759,17.15,17.15,0,0,0,12.03-4.967,15.856,15.856,0,0,0,5.408-11.92Q37.537-7.3,28.5-7.3A18.107,18.107,0,0,0,17.574-4.1,9.343,9.343,0,0,0,13.269,3.735ZM27.176-37.984c7.947,0,14.182,2.152,18.763,6.4q6.953,6.415,6.953,17.549V21.284H42.628V13.337h-.441c-4.5,6.567-10.457,9.823-17.88,9.823q-9.519,0-15.893-5.629A18.027,18.027,0,0,1,2.122,3.514,16.877,16.877,0,0,1,8.855-10.613c4.47-3.532,10.485-5.3,17.99-5.3,6.4,0,11.644,1.159,15.783,3.421v-2.428A12.069,12.069,0,0,0,38.1-24.409a15.025,15.025,0,0,0-10.375-3.973A16.314,16.314,0,0,0,13.49-20.767L4-26.727q7.822-11.258,23.177-11.258Zm0,0" transform="translate(-2.122 37.984)" fill="#747474"/>
      </g>
      <g id="use3820" transform="translate(203.031 0.883)">
        <path id="path1205" d="M14.99-53.758v83.88H4.173v-83.88Zm0,0" transform="translate(-4.173 53.758)" fill="#747474"/>
      </g>
      <g id="use3822" transform="translate(220.036 27.372)">
        <path id="path1208" d="M57.675-36.782,21.695,45.885H10.658L24.012,16.968.283-36.782h11.7L29.089,4.5h.221L45.976-36.782Zm0,0" transform="translate(-0.283 36.782)" fill="#747474"/>
      </g>
      <g id="use3826" transform="translate(280.572 9.823)">
        <path id="path1211" d="M28.257,27.795a16.376,16.376,0,0,1-11.589-4.3c-3.09-2.87-4.691-6.87-4.746-12.03V-20.657H1.768V-30.48H11.922V-48.029H22.628V-30.48H36.755v9.823H22.628V7.928c0,3.835.717,6.457,2.207,7.836a7.619,7.619,0,0,0,5.077,1.987,12.781,12.781,0,0,0,2.538-.221,20.758,20.758,0,0,0,2.318-.773l3.311,9.6A30.968,30.968,0,0,1,28.257,27.795Zm0,0" transform="translate(-1.768 48.029)" fill="#747474"/>
      </g>
      <g id="use3830" transform="translate(323.913 0)">
        <path id="path1214" d="M18.626-46.709A7.4,7.4,0,0,1,16.308-41.3a7.213,7.213,0,0,1-5.3,2.207A7.241,7.241,0,0,1,5.6-41.3,7.5,7.5,0,0,1,3.4-46.709,7.326,7.326,0,0,1,5.6-52.117a7.347,7.347,0,0,1,5.408-2.207,7.321,7.321,0,0,1,5.3,2.207,7.222,7.222,0,0,1,2.318,5.408ZM16.419-26.953V30.439H5.6V-26.953Zm0,0" transform="translate(-3.395 54.324)" fill="#747474"/>
      </g>
      <g id="use3834" transform="translate(343.801 25.495)">
        <path id="path1217" d="M31.591,23.16q-12.83,0-21.191-8.719Q2.122,5.625,2.122-7.412q0-13.244,8.278-21.853c5.574-5.794,12.637-8.719,21.191-8.719A26.879,26.879,0,0,1,46.932-33.57a27.453,27.453,0,0,1,9.823,12.141l-9.823,4.084q-4.553-10.8-16-10.816a16.706,16.706,0,0,0-12.8,5.96,21.465,21.465,0,0,0-5.3,14.789,21.417,21.417,0,0,0,5.3,14.789,16.706,16.706,0,0,0,12.8,5.96c7.864,0,13.382-3.587,16.555-10.816l9.6,4.084a25.456,25.456,0,0,1-9.823,12.141A28.1,28.1,0,0,1,31.591,23.16Zm0,0" transform="translate(-2.122 37.984)" fill="#747474"/>
      </g>
      <g id="use3836" transform="translate(404.391 25.495)">
        <path id="path1220" d="M49.448,5.391q0,7.533-6.622,12.692C38.466,21.449,33,23.16,26.381,23.16A26.414,26.414,0,0,1,11.15,18.635,25.135,25.135,0,0,1,1.768,6.715l9.6-4.084a18.433,18.433,0,0,0,6.181,8.057,14.867,14.867,0,0,0,8.83,2.87,15.474,15.474,0,0,0,8.609-2.207c2.345-1.462,3.532-3.228,3.532-5.3,0-3.67-2.842-6.346-8.5-8.057L20.2-4.432C9-7.3,3.424-12.71,3.424-20.656a14.909,14.909,0,0,1,6.4-12.582c4.249-3.146,9.712-4.746,16.335-4.746a26.712,26.712,0,0,1,13.8,3.642,19.765,19.765,0,0,1,8.609,9.712l-9.6,3.973a11.871,11.871,0,0,0-5.408-5.629,16.282,16.282,0,0,0-8.167-2.1,14.358,14.358,0,0,0-7.615,2.1c-2.207,1.407-3.311,3.146-3.311,5.187,0,3.256,3.09,5.6,9.271,7.064l8.609,2.207Q49.434-7.605,49.448,5.391Zm0,0" transform="translate(-1.768 37.984)" fill="#747474"/>
      </g>
    </g>
    <g id="g6628" transform="translate(0 0.002)">
      <path id="path3806" d="M269.9,367.465V545.243c0,19.907,13.721,30.977,28.283,30.977,13.468,0,28.283-9.428,28.283-30.977V368.812c0-18.224-13.468-29.63-28.283-29.63S269.9,351.766,269.9,367.465Zm0,0" transform="translate(-121.748 -339.182)" fill="#f8ab00"/>
      <path id="path3808" d="M222.423,425.3v87.542c0,19.907,13.721,30.977,28.283,30.977,13.468,0,28.283-9.428,28.283-30.977v-86.2c0-18.224-13.468-29.63-28.283-29.63S222.423,409.6,222.423,425.3Zm0,0" transform="translate(-148.348 -306.778)" fill="#e37300"/>
      <path id="path3810" d="M231.515,483.126a28.283,28.283,0,1,1-28.283-28.283,28.29,28.29,0,0,1,28.283,28.283" transform="translate(-174.949 -274.373)" fill="#e37300"/>
    </g>
  </g>
</svg>
