<svg xmlns="http://www.w3.org/2000/svg" width="715.313" height="215.426" viewBox="0 0 715.313 215.426">
  <g id="Group_4" data-name="Group 4" transform="translate(-2601.703 1390)">
    <g id="Group_3" data-name="Group 3" transform="translate(-362.877 -5)">
      <g id="Group_2" data-name="Group 2" transform="translate(372.093)">
        <path id="Path_34" data-name="Path 34" d="M68.231,31V81.963H60.8V31.291H44.68V23.92H84.354V31Z" transform="translate(2813.227 -1275.282)" fill="#757575"/>
        <path id="Path_35" data-name="Path 35" d="M68.57,26.887a18.484,18.484,0,0,1,13.014,4.434,15.547,15.547,0,0,1,4.722,12.035V68H79.223V62.242H78.7A14.108,14.108,0,0,1,66.5,68.98a15.893,15.893,0,0,1-10.826-3.858,12.38,12.38,0,0,1-4.434-9.674A11.517,11.517,0,0,1,55.9,45.716a19.521,19.521,0,0,1,12.38-3.628,21.766,21.766,0,0,1,10.883,2.418V42.78a8.464,8.464,0,0,0-3.052-6.564,10.653,10.653,0,0,0-7.14-2.764,11.517,11.517,0,0,0-9.847,5.24L52.62,34.6a18.138,18.138,0,0,1,15.95-7.716ZM59.012,55.678a5.758,5.758,0,0,0,2.418,4.837,9.271,9.271,0,0,0,5.758,1.728,11.517,11.517,0,0,0,8.35-3.513,10.71,10.71,0,0,0,3.685-8,15.087,15.087,0,0,0-9.674-2.764,12.726,12.726,0,0,0-7.543,2.188,6.449,6.449,0,0,0-2.994,5.47Z" transform="translate(2844.386 -1261.32)" fill="#757575"/>
        <path id="Path_36" data-name="Path 36" d="M78.052,86.4a21.938,21.938,0,0,1-6.219-.864,18.369,18.369,0,0,1-5.3-2.361A17.275,17.275,0,0,1,62.5,79.548a14.281,14.281,0,0,1-2.591-4.664l7.025-2.937a11,11,0,0,0,4.2,5.758,11.517,11.517,0,0,0,6.91,2.073A12.265,12.265,0,0,0,87.5,76.151a14.108,14.108,0,0,0,3.513-10.135v-3.8h-.345A14.511,14.511,0,0,1,84.9,67.168a16.757,16.757,0,0,1-7.774,1.785,17.275,17.275,0,0,1-13.3-6.046,23.033,23.033,0,0,1,0-29.885,17.275,17.275,0,0,1,13.3-6.161A16.814,16.814,0,0,1,84.9,28.7a14.51,14.51,0,0,1,5.758,4.952h.345v-5.47H98.09V66.016A20.1,20.1,0,0,1,92.678,80.93,19.636,19.636,0,0,1,78.052,86.4Zm0-24.185a11.517,11.517,0,0,0,8.983-3.973,14.626,14.626,0,0,0,3.973-10.307,14.8,14.8,0,0,0-3.628-10.25,11.977,11.977,0,0,0-17.908,0,14.8,14.8,0,0,0-3.628,10.25,14.568,14.568,0,0,0,3.628,10.25,11.517,11.517,0,0,0,8.81,4.031Z" transform="translate(2878.149 -1261.294)" fill="#757575"/>
        <path id="Path_37" data-name="Path 37" d="M77.508,82.106H70.08V24.523h7.428L97.6,59.073h.345L117.989,23.89h7.428V82.106h-7.428V47.556l.345-9.674h-.345L99.965,69.553H95.589L77.508,37.883H77.22l.288,9.674Z" transform="translate(2934.087 -1275.425)" fill="#757575"/>
        <path id="Path_38" data-name="Path 38" d="M98.163,26.881a18.484,18.484,0,0,1,13.014,4.434,15.547,15.547,0,0,1,4.952,12.035V68h-7.313V62.237h-.345A14.165,14.165,0,0,1,96.2,68.974a15.835,15.835,0,0,1-10.883-3.858,12.38,12.38,0,0,1-4.434-9.674,11.516,11.516,0,0,1,4.664-9.731,19.52,19.52,0,0,1,12.38-3.628A22.054,22.054,0,0,1,108.815,44.5V42.774a8.465,8.465,0,0,0-3.052-6.564,10.653,10.653,0,0,0-6.91-2.764,11.517,11.517,0,0,0-9.847,5.24L82.5,34.6a18.139,18.139,0,0,1,15.662-7.716ZM88.546,55.672a5.758,5.758,0,0,0,2.476,4.837,9.271,9.271,0,0,0,5.758,1.958,11.517,11.517,0,0,0,8.349-3.513,10.71,10.71,0,0,0,3.685-8.234,15.087,15.087,0,0,0-9.674-2.764A12.726,12.726,0,0,0,91.6,50.145a6.507,6.507,0,0,0-3.052,5.47Z" transform="translate(2985.468 -1261.314)" fill="#757575"/>
        <path id="Path_39" data-name="Path 39" d="M88.42,28.4H95.5v5.24h.345a12.438,12.438,0,0,1,5.182-4.837,15.318,15.318,0,0,1,7.313-1.958,14.626,14.626,0,0,1,11.171,4.146,16.814,16.814,0,0,1,3.916,11.862V68.189H116V43.544a8.753,8.753,0,0,0-9.789-9.9,9.213,9.213,0,0,0-7.371,3.57,13.014,13.014,0,0,0-2.994,8.58v22.4H88.42Z" transform="translate(3021.353 -1261.508)" fill="#757575"/>
        <path id="Path_40" data-name="Path 40" d="M112.6,26.887a18.311,18.311,0,0,1,12.956,4.434,15.547,15.547,0,0,1,4.779,12.035V68h-7.14V62.242h0a14.165,14.165,0,0,1-12.265,6.737,15.893,15.893,0,0,1-10.941-3.858,12.323,12.323,0,0,1-4.376-9.674,11.516,11.516,0,0,1,4.607-9.731,19.635,19.635,0,0,1,12.38-3.628,21.767,21.767,0,0,1,10.883,2.418V42.779a8.292,8.292,0,0,0-3.052-6.564A10.538,10.538,0,0,0,113,33.451a11.517,11.517,0,0,0-9.847,5.24L96.588,34.6A18.254,18.254,0,0,1,112.6,26.887ZM102.98,55.678a5.758,5.758,0,0,0,2.418,4.837,9.328,9.328,0,0,0,5.758,1.958,11.517,11.517,0,0,0,8.349-3.513,10.883,10.883,0,0,0,3.628-8.119,15.087,15.087,0,0,0-9.674-2.764,12.726,12.726,0,0,0-7.543,2.188,6.449,6.449,0,0,0-2.937,5.355Z" transform="translate(3055.508 -1261.32)" fill="#757575"/>
        <path id="Path_41" data-name="Path 41" d="M122.495,86.4a21.938,21.938,0,0,1-6.219-.864,18.022,18.022,0,0,1-5.24-2.361,17.733,17.733,0,0,1-4.088-3.628,14.28,14.28,0,0,1-2.591-4.664l7.025-2.937a11,11,0,0,0,4.2,5.758,11.517,11.517,0,0,0,6.91,2.073,12.265,12.265,0,0,0,9.444-3.628,14.108,14.108,0,0,0,3.4-9.962V62.216h-.345a14.741,14.741,0,0,1-5.758,4.952,17.275,17.275,0,0,1-7.774,1.785A17.62,17.62,0,0,1,108.1,62.907a23.033,23.033,0,0,1,0-29.885A17.481,17.481,0,0,1,129.232,28.7a14.742,14.742,0,0,1,5.758,4.952h.345v-5.47h7.083V66.017a20.1,20.1,0,0,1-5.413,14.914A19.636,19.636,0,0,1,122.495,86.4Zm0-24.185a11.517,11.517,0,0,0,8.983-3.973A14.626,14.626,0,0,0,135.1,47.936a14.8,14.8,0,0,0-3.628-10.25,11.961,11.961,0,0,0-17.908,0,14.8,14.8,0,0,0-3.628,10.25,14.568,14.568,0,0,0,3.628,10.25,11.516,11.516,0,0,0,9.156,4.031Z" transform="translate(3088.797 -1261.294)" fill="#757575"/>
        <path id="Path_42" data-name="Path 42" d="M130.706,68.967a18.83,18.83,0,0,1-14.338-5.758,21.19,21.19,0,0,1-5.758-15.087,21.478,21.478,0,0,1,5.47-15.029,18.2,18.2,0,0,1,14.108-6.219,17.966,17.966,0,0,1,13.993,5.758,23.033,23.033,0,0,1,5.182,15.95v.806H118.325a12.552,12.552,0,0,0,23.839,5.816l6.622,3.225A20.1,20.1,0,0,1,141.7,66.2a20.9,20.9,0,0,1-11,2.764Zm-12.035-25.8H141.7a9.9,9.9,0,0,0-3.34-6.795,11.8,11.8,0,0,0-8.177-2.937,10.711,10.711,0,0,0-7.2,2.591A12.668,12.668,0,0,0,118.671,43.17Z" transform="translate(3126.882 -1261.308)" fill="#757575"/>
        <path id="Path_43" data-name="Path 43" d="M125.948,67.841H118.52V28.051H125.6V34.5h.345a10.48,10.48,0,0,1,4.607-5.355,12.9,12.9,0,0,1,6.91-2.246,14.05,14.05,0,0,1,5.758.979l-2.246,7.2A11.517,11.517,0,0,0,136.6,34.5a9.444,9.444,0,0,0-7.256,3.4,11.516,11.516,0,0,0-3.109,7.888Z" transform="translate(3164.576 -1261.16)" fill="#757575"/>
      </g>
      <g id="g6562" transform="translate(3230 -1380)">
        <path id="path6536" d="M121.2,50.966c0,16.415-12.842,28.511-28.6,28.511S64,67.381,64,50.966c0-16.531,12.842-28.511,28.6-28.511S121.2,34.435,121.2,50.966Zm-12.52,0c0-10.258-7.443-17.276-16.081-17.276S76.516,40.708,76.516,50.966c0,10.155,7.443,17.276,16.081,17.276S108.678,61.108,108.678,50.966Z" transform="translate(27.129 9.077)" fill="#747474"/>
        <path id="path6538" d="M164.312,50.966c0,16.415-12.842,28.511-28.6,28.511s-28.6-12.1-28.6-28.511c0-16.518,12.842-28.511,28.6-28.511S164.312,34.435,164.312,50.966Zm-12.52,0c0-10.258-7.443-17.276-16.081-17.276s-16.081,7.019-16.081,17.276c0,10.155,7.443,17.276,16.081,17.276S151.791,61.108,151.791,50.966Z" transform="translate(45.718 9.077)" fill="#747474"/>
        <path id="path6540" d="M204.862,24.177V75.364c0,21.056-12.417,29.655-27.1,29.655a27.151,27.151,0,0,1-25.272-16.8l10.9-4.538c1.941,4.64,6.7,10.116,14.358,10.116,9.4,0,15.22-5.8,15.22-16.711v-4.1h-.437c-2.8,3.458-8.2,6.479-15.014,6.479-14.256,0-27.316-12.417-27.316-28.4,0-16.094,13.06-28.614,27.316-28.614,6.8,0,12.2,3.021,15.014,6.376h.437V24.19h11.89Zm-11,26.892c0-10.039-6.7-17.379-15.22-17.379-8.638,0-15.875,7.34-15.875,17.379,0,9.937,7.237,17.174,15.875,17.174C187.161,68.242,193.858,61.005,193.858,51.069Z" transform="translate(64.298 9.077)" fill="#747474"/>
        <path id="path6542" d="M205.772,2.695V86.249H193.56V2.695Z" transform="translate(82.991 0.558)" fill="#747474"/>
        <path id="path6544" d="M248.1,60.354l9.718,6.479a28.379,28.379,0,0,1-23.755,12.636c-16.2,0-28.293-12.52-28.293-28.511,0-16.955,12.2-28.511,26.892-28.511,14.8,0,22.033,11.775,24.4,18.138l1.3,3.239L220.24,59.608c2.918,5.72,7.456,8.638,13.819,8.638s10.8-3.136,14.037-7.893ZM218.184,50.1l25.478-10.579c-1.4-3.561-5.617-6.042-10.579-6.042C226.719,33.475,217.862,39.092,218.184,50.1Z" transform="translate(88.254 9.073)" fill="#747474"/>
        <path id="path6546" d="M45.224,53.048v-12.1H85.986a40.079,40.079,0,0,1,.6,7.3c0,9.075-2.481,20.3-10.476,28.293-7.777,8.1-17.713,12.417-30.876,12.417C20.839,88.964.323,69.091.323,44.693S20.839.422,45.237.422a42.184,42.184,0,0,1,30.337,12.2l-8.535,8.535a30.833,30.833,0,0,0-21.814-8.638c-17.816,0-31.751,14.358-31.751,32.175S27.408,76.868,45.224,76.868c11.556,0,18.138-4.64,22.354-8.857,3.419-3.419,5.669-8.3,6.556-14.975Z" transform="translate(-0.323 -0.422)" fill="#747474"/>
      </g>
    </g>
    <g id="google-tag-manager-svgrepo-com" transform="translate(2601.702 -1390)">
      <path id="Path_47" data-name="Path 47" d="M143.219,223.2l-37.394-36.463,80.307-82.008,38.715,37.947Z" transform="translate(-16.773 -16.6)" fill="#8ab4f8"/>
      <path id="Path_48" data-name="Path 48" d="M126.6,46.773,89.347,8.731l-81.47,80.7a26.905,26.905,0,0,0,0,38.042l80.246,80.779,37.947-35.489-61.142-64.31Z" transform="translate(0 -1.384)" fill="#4285f4"/>
      <path id="Path_49" data-name="Path 49" d="M222.752,88.669,141.967,7.886A26.925,26.925,0,1,0,103.89,45.965l80.783,80.78a26.925,26.925,0,1,0,38.077-38.079Z" transform="translate(-15.216 0)" fill="#8ab4f8"/>
      <circle id="Ellipse_4" data-name="Ellipse 4" cx="26.315" cy="26.315" r="26.315" transform="translate(80.777 162.796)" fill="#246fdb"/>
    </g>
  </g>
</svg>
