<svg xmlns="http://www.w3.org/2000/svg" width="702.156" height="182.091" viewBox="0 0 702.156 182.091">
  <g id="Group_3" data-name="Group 3" transform="translate(-3517.397 1080.99)">
    <g id="Group_2" data-name="Group 2" transform="translate(3517.402 -1081)">
      <path id="Path_24" data-name="Path 24" d="M85.384,22.962A36.016,36.016,0,0,1,93.892,9.478,33.324,33.324,0,0,1,146.3,17.263c8.026,14.608,16.534,28.895,24.8,43.342,13.8,24,27.771,48,41.416,72.076a33.112,33.112,0,0,1-23.758,49.041c-13.966,2.087-27.049-4.334-34.272-16.855q-18.18-31.664-36.439-63.247a7.273,7.273,0,0,0-.883-1.284c-1.284-1.043-1.846-2.568-2.649-3.933C109.142,86.931,103.6,77.54,98.226,68.15c-3.451-6.1-7.063-12.12-10.514-18.22A33.237,33.237,0,0,1,83.3,32.272a24.608,24.608,0,0,1,2.087-9.31" transform="translate(-17.563 -0.033)" fill="#3c8bd9"/>
      <path id="Path_25" data-name="Path 25" d="M71.2,28.6a46.167,46.167,0,0,0-1.525,8.829,34.672,34.672,0,0,0,4.816,18.862q13.243,22.755,26.406,45.67c.8,1.364,1.445,2.729,2.247,4.013-4.816,8.347-9.632,16.614-14.528,24.962-6.742,11.638-13.484,23.356-20.306,34.995-.321,0-.4-.161-.482-.4a4.976,4.976,0,0,1,.321-1.846c3.291-12.039.562-22.714-7.705-31.864a30.589,30.589,0,0,0-18.862-9.712c-9.632-1.364-18.139,1.124-25.764,7.143-1.364,1.043-2.247,2.568-3.853,3.371a.535.535,0,0,1-.562-.4c3.853-6.662,7.625-13.324,11.478-19.985q23.835-41.42,47.753-82.755c.161-.321.4-.562.562-.883" transform="translate(-3.375 -5.671)" fill="#fabc04"/>
      <path id="Path_26" data-name="Path 26" d="M9.748,155.255c1.525-1.364,2.97-2.809,4.575-4.093,19.5-15.41,48.8-4.254,53.054,20.146a35.279,35.279,0,0,1-1.284,17.1,8.4,8.4,0,0,1-.321,1.364c-.722,1.284-1.364,2.649-2.167,3.933-7.143,11.8-17.658,17.658-31.463,16.775a32.947,32.947,0,0,1-30.42-28.734A32.114,32.114,0,0,1,6.136,160.4c.8-1.445,1.766-2.729,2.649-4.174.4-.321.241-.963.963-.963" transform="translate(-1.402 -28.466)" fill="#34a852"/>
      <path id="Path_27" data-name="Path 27" d="M11.58,157.921c-.321.321-.321.883-.883.963-.08-.562.241-.883.562-1.284l.321.321" transform="translate(-3.234 -31.132)" fill="#fabc04"/>
      <path id="Path_28" data-name="Path 28" d="M81.567,200.664c-.321-.562,0-.963.321-1.364l.321.321-.642,1.043" transform="translate(-17.198 -39.363)" fill="#e1c025"/>
    </g>
    <g id="Group_1" data-name="Group 1" transform="translate(3746.831 -1039.263)">
      <path id="Path_29" data-name="Path 29" d="M39.016,260.4C17.718,260.4,0,277.552,0,298.662s17.718,38.074,39.016,38.074c11.5,0,19.979-3.77,26.765-10.744,6.974-6.974,9.047-16.587,9.047-24.314a34.429,34.429,0,0,0-.565-6.6H39.016v10.367H64.085c-.754,5.843-2.639,10.178-5.655,13.194-3.581,3.581-9.424,7.728-19.414,7.728a27.707,27.707,0,1,1,0-55.415,25.9,25.9,0,0,1,18.848,7.54l7.351-7.351a36.18,36.18,0,0,0-26.2-10.741Zm63.9,27.33c-13.382,0-24.5,10.367-24.5,24.88,0,14.325,10.932,24.88,24.5,24.88s24.5-10.555,24.5-24.88a24.421,24.421,0,0,0-24.5-24.88m0,39.959c-7.351,0-13.759-6.22-13.759-15.079s6.408-15.079,13.759-15.079,13.759,6.031,13.759,15.079c0,8.859-6.408,15.079-13.759,15.079m53.153-39.959c-13.571,0-24.5,10.367-24.5,24.88,0,14.325,10.932,24.88,24.5,24.88a24.421,24.421,0,0,0,24.5-24.88c0-14.325-10.932-24.88-24.5-24.88m0,39.959c-7.351,0-13.759-6.22-13.759-15.079s6.408-15.079,13.759-15.079,13.759,6.031,13.759,15.079c0,8.859-6.22,15.079-13.759,15.079m52.964-39.959c-12.251,0-23.372,10.744-23.372,24.691,0,13.759,11.121,24.5,23.372,24.5a16.472,16.472,0,0,0,12.817-5.655h.377v3.581c0,9.424-4.9,14.513-13.005,14.513-6.6,0-10.555-4.712-12.251-8.67l-9.424,3.958a23.115,23.115,0,0,0,21.676,14.513c12.628,0,23.184-7.539,23.184-25.634v-44.1H222.223v3.958h-.377a16.472,16.472,0,0,0-12.817-5.655m.942,39.582c-7.351,0-13.571-6.22-13.571-14.89s6.22-15.079,13.571-15.079,13.005,6.409,13.005,15.079-5.655,14.89-13.005,14.89m30.346-63.9h10.744v72.755H240.317ZM279.9,287.73c-12.817,0-23.561,9.99-23.561,24.88,0,13.948,10.555,24.88,24.691,24.88a24.644,24.644,0,0,0,20.733-10.932l-8.482-5.655c-2.827,4.147-6.785,6.785-12.251,6.785-5.655,0-9.613-2.45-12.063-7.539l33.362-13.759-1.131-2.827c-2.073-5.466-8.482-15.833-21.3-15.833m-12.817,24.126a13.646,13.646,0,0,1,13.005-14.513c4.335,0,8.1,2.073,9.236,5.278Z" transform="translate(0 -260.4)" fill="#757575"/>
      <path id="Path_30" data-name="Path 30" d="M170.4,331.058,195.28,264.9h9.613l24.88,66.158h-9.424l-6.408-17.906H186.233l-6.408,17.906Zm18.66-25.822h22.053l-10.744-29.78h-.377Z" transform="translate(150.777 -256.418)" fill="#757575"/>
      <path id="Path_31" data-name="Path 31" d="M209.42,325.592a24.948,24.948,0,0,1-6.22-17.152,25.625,25.625,0,0,1,6.22-17.152c4.335-4.712,9.236-6.974,15.267-6.974a19.993,19.993,0,0,1,9.047,2.073,15.694,15.694,0,0,1,6.408,5.655h.377l-.377-6.22V264.9h8.482v66.158h-8.1v-6.22h-.377a17.167,17.167,0,0,1-6.408,5.655,18.771,18.771,0,0,1-9.047,2.073,19.474,19.474,0,0,1-15.267-6.974m26.765-5.278c2.827-3.016,4.147-6.974,4.147-11.874,0-4.712-1.319-8.67-4.147-11.686a13.712,13.712,0,0,0-20.356,0c-2.827,3.016-4.147,6.974-4.147,11.686s1.319,8.67,4.147,11.686a13.463,13.463,0,0,0,10.178,4.524,12.191,12.191,0,0,0,10.178-4.335" transform="translate(179.8 -256.418)" fill="#757575"/>
      <path id="Path_32" data-name="Path 32" d="M263.319,319.3a22.294,22.294,0,0,1-25.068.565,20.181,20.181,0,0,1-7.351-9.424l7.539-3.2a13.977,13.977,0,0,0,4.9,6.408,11.845,11.845,0,0,0,6.974,2.262,12.95,12.95,0,0,0,6.785-1.7,4.785,4.785,0,0,0,2.639-4.147c0-2.827-2.262-5.089-6.6-6.408l-7.728-1.885c-8.859-2.262-13.194-6.408-13.194-12.817a11.994,11.994,0,0,1,5.089-9.99,21.5,21.5,0,0,1,12.817-3.77,21.982,21.982,0,0,1,10.932,2.827,15.84,15.84,0,0,1,6.785,7.728l-7.539,3.2a10.649,10.649,0,0,0-4.147-4.524,12.734,12.734,0,0,0-6.6-1.7,11.212,11.212,0,0,0-6.032,1.7c-1.7,1.131-2.639,2.45-2.639,4.147,0,2.639,2.45,4.524,7.351,5.466l6.785,1.7c9.047,2.262,13.382,6.785,13.382,13.571.188,3.958-1.7,7.351-5.089,9.99" transform="translate(204.31 -247.304)" fill="#757575"/>
    </g>
  </g>
</svg>
