<svg xmlns="http://www.w3.org/2000/svg" width="712.159" height="234.429" viewBox="0 0 712.159 234.429">
  <g id="Google" transform="translate(-0.36 -0.47)">
    <path id="Path_18" data-name="Path 18" d="M188.781,83.581c0,33.727-26.385,58.581-58.766,58.581S71.25,117.308,71.25,83.581C71.25,49.616,97.635,25,130.016,25S188.781,49.616,188.781,83.581Zm-25.725,0c0-21.076-15.292-35.5-33.041-35.5S96.975,62.5,96.975,83.581c0,20.865,15.292,35.5,33.041,35.5S163.056,104.419,163.056,83.581Z" transform="translate(116.341 40.257)" fill="#ea4335"/>
    <path id="Path_19" data-name="Path 19" d="M236.781,83.581c0,33.727-26.385,58.581-58.766,58.581S119.25,117.308,119.25,83.581C119.25,49.642,145.635,25,178.016,25S236.781,49.616,236.781,83.581Zm-25.725,0c0-21.076-15.292-35.5-33.041-35.5s-33.041,14.421-33.041,35.5c0,20.865,15.292,35.5,33.041,35.5S211.056,104.419,211.056,83.581Z" transform="translate(195.116 40.257)" fill="#fbbc05"/>
    <path id="Path_20" data-name="Path 20" d="M279.532,28.539V133.71c0,43.262-25.513,60.931-55.675,60.931-28.392,0-45.481-18.99-51.925-34.52l22.4-9.323c3.988,9.535,13.76,20.786,29.5,20.786,19.307,0,31.271-11.912,31.271-34.335v-8.425h-.9c-5.758,7.1-16.851,13.311-30.849,13.311-29.29,0-56.124-25.514-56.124-58.343C167.23,50.725,194.064,25,223.354,25c13.972,0,25.065,6.207,30.849,13.1h.9V28.566h24.431ZM256.923,83.792c0-20.627-13.76-35.708-31.271-35.708-17.749,0-32.618,15.081-32.618,35.708,0,20.416,14.87,35.286,32.618,35.286C243.163,119.078,256.923,104.208,256.923,83.792Z" transform="translate(273.859 40.257)" fill="#4285f4"/>
    <path id="Path_21" data-name="Path 21" d="M240.591,3V174.675H215.5V3Z" transform="translate(353.077 4.152)" fill="#34a853"/>
    <path id="Path_22" data-name="Path 22" d="M316.063,102.878l19.967,13.311c-6.444,9.535-21.974,25.963-48.808,25.963-33.279,0-58.132-25.725-58.132-58.581,0-34.837,25.064-58.581,55.253-58.581,30.4,0,45.269,24.193,50.129,37.267l2.668,6.656-78.31,32.433c6,11.753,15.319,17.749,28.392,17.749,13.1,0,22.186-6.444,28.841-16.217ZM254.6,81.8l52.348-21.737c-2.879-7.316-11.542-12.413-21.737-12.413C272.141,47.651,253.943,59.193,254.6,81.8Z" transform="translate(375.38 40.241)" fill="#ea4335"/>
    <path id="Path_23" data-name="Path 23" d="M92.615,108.6V83.745h83.751a82.35,82.35,0,0,1,1.241,15c0,18.647-5.1,41.7-21.525,58.132-15.979,16.639-36.4,25.514-63.44,25.514C42.513,182.392.36,141.56.36,91.431S42.513.47,92.642.47c27.732,0,47.488,10.882,62.331,25.065L137.436,43.072a63.351,63.351,0,0,0-44.82-17.749c-36.606,0-65.236,29.5-65.236,66.108s28.63,66.108,65.236,66.108c23.744,0,37.267-9.535,45.93-18.2,7.025-7.025,11.647-17.062,13.47-30.769Z" transform="translate(0 0)" fill="#4285f4"/>
  </g>
</svg>
