<svg xmlns="http://www.w3.org/2000/svg" width="702.155" height="282.759" viewBox="0 0 702.155 282.759">
  <g id="Group_5" data-name="Group 5" transform="translate(-3470 2738)">
    <g id="Group_9" data-name="Group 9" transform="translate(3470 -2738)">
      <path id="Path_3" data-name="Path 3" d="M236.651,512.25v15h35.84c-1.1,8.406-3.887,14.562-8.164,18.9-5.245,5.245-13.409,10.974-27.675,10.974a39.871,39.871,0,1,1,0-79.742,38.071,38.071,0,0,1,27.005,10.74L274.2,477.568a51.78,51.78,0,0,0-37.551-15.232c-30.223,0-55.651,24.625-55.651,54.848s25.424,54.866,55.651,54.866c16.349,0,28.658-5.357,38.276-15.362s13.02-23.826,13.02-35.04a48.885,48.885,0,0,0-.8-9.392Z" transform="translate(-181 -462.329)" fill="#5064ac"/>
      <path id="Path_4" data-name="Path 4" d="M278.812,539.488c-10.714,0-19.994-8.831-19.994-21.444s9.3-21.462,19.994-21.462,19.994,8.722,19.994,21.462S289.542,539.488,278.812,539.488Zm0-56.875a35.338,35.338,0,1,0,35.546,35.44,34.891,34.891,0,0,0-35.541-35.44Z" transform="translate(-127.103 -444.893)" fill="#f81d13"/>
      <path id="Path_5" data-name="Path 5" d="M362.494,539.487c-10.732,0-18.9-9.132-18.9-21.444s8.164-21.462,18.9-21.462,18.9,9.132,18.9,21.574S373.1,539.487,362.494,539.487Zm17.857-48.953H379.9a24.624,24.624,0,0,0-18.6-7.923c-17.687,0-33.105,15.437-33.105,35.43s15.419,35.338,33.105,35.338a24.178,24.178,0,0,0,18.6-8.053h.54v4.965c0,13.521-7.253,20.774-18.9,20.774-9.5,0-15.419-6.831-17.855-12.61l-13.539,5.58a33.739,33.739,0,0,0,31.394,20.906c18.226,0,33.645-10.714,33.645-36.863V484.453H380.444Z" transform="translate(-54.428 -444.892)" fill="#5064ac"/>
      <path id="Path_6" data-name="Path 6" d="M321.424,539.488c-10.732,0-19.994-8.831-19.994-21.444s9.3-21.462,19.994-21.462,19.994,8.722,19.994,21.462S332.247,539.488,321.424,539.488Zm0-56.875a35.338,35.338,0,1,0,35.541,35.438,34.91,34.91,0,0,0-35.541-35.438Z" transform="translate(-90.466 -444.893)" fill="#fbb702"/>
      <rect id="Rectangle_1" data-name="Rectangle 1" width="15.307" height="107.091" transform="translate(352.871 1.472)" fill="#399733"/>
      <path id="Path_7" data-name="Path 7" d="M419.533,495.909c6.268,0,11.643,3.236,13.409,7.793l-32.007,13.243C400.937,502.065,411.482,495.909,419.533,495.909Zm1.1,43.576a18.022,18.022,0,0,1-17.2-10.732L450.8,509.186l-1.581-4.017c-2.939-7.923-11.958-22.56-30.3-22.56s-33.477,14.339-33.477,35.43a34.612,34.612,0,0,0,35.115,35.338A35.338,35.338,0,0,0,450.049,537.7l-12-7.868c-4.01,5.748-9.5,9.656-17.42,9.656Z" transform="translate(-5.215 -444.891)" fill="#f81d13"/>
    </g>
    <g id="Group_8" data-name="Group 8" transform="translate(3470 -2581.288)">
      <path id="Path_8" data-name="Path 8" d="M272.8,46.39l-.54-16.087h.54l30.04,52.688h7.253L340.13,30.3h.54l-.54,16.087v56.984h12.33v-96H340.13L306.724,65.825H306.2L272.8,7.37h-12.33v96.006H272.8Z" transform="translate(-260.471 -6.304)" fill="#757575"/>
      <path id="Path_9" data-name="Path 9" d="M366.99,23.66l-19.044,47.2h-.26L328.1,23.66H314.69l27.079,61.561L326.5,118.344h12.721L380.4,23.66Z" transform="translate(-213.851 7.703)" fill="#757575"/>
      <path id="Path_10" data-name="Path 10" d="M588.981,522.329a16.014,16.014,0,0,1,11.792,4.687,15.14,15.14,0,0,1,4.705,11.01,15.809,15.809,0,0,1-15.957,15.809H564.71V522.329Zm-1.333-40.917A14.5,14.5,0,0,1,598.1,506.3a14.88,14.88,0,0,1-11,4.427H564.71V481.412Zm1.333,84.214a28.883,28.883,0,0,0,20.459-7.774,25.351,25.351,0,0,0,8.574-19.584,22.327,22.327,0,0,0-4.427-13.614,23.192,23.192,0,0,0-11.792-8.369v-.54a20.272,20.272,0,0,0,13.019-19.994,23.993,23.993,0,0,0-8.184-18.6,27.9,27.9,0,0,0-19.566-7.44h-34.7v96.024Z" transform="translate(-346.123 -468.628)" fill="#757575"/>
      <path id="Path_11" data-name="Path 11" d="M651.9,486h-12.33v36.341a21.611,21.611,0,0,1-4.965,14.284,15.419,15.419,0,0,1-12.33,5.97q-15.809,0-16.237-16.107V486h-12.33v41.288q0,12.721,6.51,19.641t18.6,6.9a24.679,24.679,0,0,0,12.145-3.218,21.891,21.891,0,0,0,8.649-8.034h.54v9.114h11.755Z" transform="translate(-310.566 -454.617)" fill="#757575"/>
      <path id="Path_12" data-name="Path 12" d="M665.481,514.749l-9.932-2.548q-10.564-2.4-10.582-8.034a6.92,6.92,0,0,1,3.721-5.895,15.789,15.789,0,0,1,8.649-2.418,19.215,19.215,0,0,1,9.5,2.333,13.95,13.95,0,0,1,6.1,6.51l11-4.557a22.66,22.66,0,0,0-9.857-11.163,33.477,33.477,0,0,0-34.463,1.283,17.074,17.074,0,0,0-7.31,14.414q0,13.663,19.175,18.506l11.27,2.809q9.652,2.958,9.652,9.3a7.216,7.216,0,0,1-3.962,6.027,17.892,17.892,0,0,1-9.857,2.548,17.071,17.071,0,0,1-10.117-3.292,20.459,20.459,0,0,1-7.048-9.164l-11,4.687a28.437,28.437,0,0,0,10.732,13.614,29.979,29.979,0,0,0,17.427,5.152,29.61,29.61,0,0,0,18.915-5.9,17.818,17.818,0,0,0,7.439-14.5Q685.065,519.6,665.481,514.749Z" transform="translate(-279.004 -455.636)" fill="#757575"/>
      <path id="Path_13" data-name="Path 13" d="M666.965,500.509v65.713h12.33V500.509Zm12.33-28.825a8.722,8.722,0,1,0,0,12.33,8.722,8.722,0,0,0,0-12.33Z" transform="translate(-249.782 -469.126)" fill="#757575"/>
      <path id="Path_14" data-name="Path 14" d="M681.087,552.687h12.33V516.346a21.612,21.612,0,0,1,4.965-14.284,15.419,15.419,0,0,1,12.33-5.97q15.809,0,16.237,16.089v40.507h12.335V511.381q0-12.721-6.51-19.639t-18.6-6.9a24.679,24.679,0,0,0-12.145,3.217,21.891,21.891,0,0,0-8.649,8.034h-.54V487H681.05Z" transform="translate(-235.467 -455.615)" fill="#757575"/>
      <path id="Path_15" data-name="Path 15" d="M738.385,500.362a17.856,17.856,0,0,1,12-4.3,19.494,19.494,0,0,1,13.484,4.5,16.348,16.348,0,0,1,5.58,11.33H731.708a20.46,20.46,0,0,1,6.676-11.532Zm30.8,49.844a32.7,32.7,0,0,0,12.275-13.02l-11-5.375q-6.733,11.792-18.6,11.81a20.459,20.459,0,0,1-14.749-5.915,21.351,21.351,0,0,1-6.435-15.549h51.63l.13-1.333q0-17.019-8.649-26.492t-23.267-9.447a30.187,30.187,0,0,0-23.3,9.914,35.656,35.656,0,0,0-9.114,24.993,35.078,35.078,0,0,0,9.3,25.09,31.451,31.451,0,0,0,23.993,9.914,33.926,33.926,0,0,0,17.78-4.594Z" transform="translate(-203.623 -455.59)" fill="#757575"/>
      <path id="Path_16" data-name="Path 16" d="M791.858,514.745l-9.932-2.548q-10.6-2.4-10.6-8.034a6.936,6.936,0,0,1,3.832-5.9,15.791,15.791,0,0,1,8.649-2.418,19.141,19.141,0,0,1,9.447,2.343,13.763,13.763,0,0,1,6.1,6.51l11.01-4.557a22.66,22.66,0,0,0-9.857-11.163,33.477,33.477,0,0,0-34.463,1.283,17.075,17.075,0,0,0-7.309,14.414q0,13.663,19.174,18.506l11.252,2.809c6.435,1.971,9.664,5.058,9.664,9.3a7.216,7.216,0,0,1-3.962,6.027A17.929,17.929,0,0,1,785,543.867a17.127,17.127,0,0,1-10.135-3.292,20.348,20.348,0,0,1-7.03-9.164l-11,4.687a28.326,28.326,0,0,0,10.732,13.614,32.677,32.677,0,0,0,36.341-.743,17.8,17.8,0,0,0,7.44-14.5Q811.422,519.6,791.858,514.745Z" transform="translate(-170.294 -455.632)" fill="#757575"/>
      <path id="Path_17" data-name="Path 17" d="M824.676,514.744l-9.914-2.548q-10.6-2.4-10.6-8.034a6.936,6.936,0,0,1,3.832-5.9,15.793,15.793,0,0,1,8.649-2.418,19.138,19.138,0,0,1,9.449,2.344,13.857,13.857,0,0,1,6.1,6.51l11-4.557a22.562,22.562,0,0,0-9.857-11.163,33.479,33.479,0,0,0-34.464,1.283,17.073,17.073,0,0,0-7.31,14.414q0,13.663,19.175,18.506l11.215,2.883q9.652,2.958,9.652,9.3a7.234,7.234,0,0,1-3.942,6.027,17.927,17.927,0,0,1-9.857,2.548,17.093,17.093,0,0,1-10.137-3.292,20.237,20.237,0,0,1-7.03-9.164l-11.01,4.687a28.55,28.55,0,0,0,10.732,13.615,30.036,30.036,0,0,0,17.445,5.152,29.589,29.589,0,0,0,19.026-5.988,17.818,17.818,0,0,0,7.44-14.5Q844.261,519.6,824.676,514.744Z" transform="translate(-142.11 -455.631)" fill="#757575"/>
    </g>
  </g>
</svg>
