<svg xmlns="http://www.w3.org/2000/svg" width="707.155" height="214.609" viewBox="0 0 707.155 214.609">
  <g id="Group_6" data-name="Group 6" transform="translate(-3470 2508)">
    <g id="Group_11" data-name="Group 11" transform="translate(3470 -2376.075)">
      <g id="XMLID_41_" transform="translate(0 0.102)">
        <path id="Shape" d="M27.633,82.533a29.506,29.506,0,0,1-16.806-5.6A26.312,26.312,0,0,1,.053,61.161l9.309-3.792A20.989,20.989,0,0,0,16.17,68.314,16.955,16.955,0,0,0,27.719,72.8a18.314,18.314,0,0,0,11.294-3.449,11.1,11.1,0,0,0,4.654-9.394,12,12,0,0,0-4.654-10.169c-3.1-2.413-8.1-4.654-14.823-6.637C17.208,40.9,11.865,38.061,8.331,34.613A17.858,17.858,0,0,1,2.9,21.167,19.714,19.714,0,0,1,9.62,6.342C14.1,2.115,19.963.053,27.2.053c6.723,0,12.152,1.638,16.289,5A23.4,23.4,0,0,1,51.678,16l-9.307,3.878a14.148,14.148,0,0,0-4.913-6.982,15.208,15.208,0,0,0-10.08-3.188,15.832,15.832,0,0,0-10,3.279,9.967,9.967,0,0,0-4.134,8.1A9.186,9.186,0,0,0,17.035,28.5a35.645,35.645,0,0,0,11.2,5.429c3.878,1.292,7.153,2.5,9.739,3.619A51.184,51.184,0,0,1,45.9,42.2a18.679,18.679,0,0,1,6.034,7.24,23.425,23.425,0,0,1,2.068,10.083,21.2,21.2,0,0,1-2.413,10.258A18.85,18.85,0,0,1,45.3,76.932a33.176,33.176,0,0,1-8.447,4.051,26.255,26.255,0,0,1-9.221,1.549Z" transform="translate(-0.053 -0.053)" fill="#757575"/>
        <path id="Shape-2" data-name="Shape" d="M39.83,62.8a26.052,26.052,0,0,1-19.9-8.188,29.027,29.027,0,0,1-7.67-20.6,30.18,30.18,0,0,1,7.412-20.34,24.163,24.163,0,0,1,19.041-8.54c8.015,0,14.392,2.586,19.219,7.843s7.24,12.239,7.24,20.943l-.086,1.9H22.419A18.608,18.608,0,0,0,27.85,48.748a16.414,16.414,0,0,0,11.722,4.746c7.239,0,12.239-3.1,14.823-9.309l9.05,3.792a23.731,23.731,0,0,1-8.7,10.509A24.6,24.6,0,0,1,39.83,62.8ZM54.4,27.553a14.5,14.5,0,0,0-4.223-8.791c-2.586-2.756-6.464-4.223-11.636-4.223A14.559,14.559,0,0,0,28.8,18.073a17.974,17.974,0,0,0-5.688,9.48Z" transform="translate(47.304 19.684)" fill="#757575"/>
        <path id="Shape-3" data-name="Shape" d="M44.048,62.805a21.067,21.067,0,0,1-14.392-5,16.286,16.286,0,0,1-5.774-13.1,16.283,16.283,0,0,1,6.809-13.876,27.64,27.64,0,0,1,16.892-5,29.5,29.5,0,0,1,14.652,3.275v-1.56a12.3,12.3,0,0,0-4.051-9.566,14.559,14.559,0,0,0-10-3.619,15.868,15.868,0,0,0-8.015,2.068,10.4,10.4,0,0,0-4.913,5.775l-9.309-3.964a20.3,20.3,0,0,1,7.412-8.963c3.707-2.756,8.532-4.134,14.566-4.134a25.043,25.043,0,0,1,17.236,6.028c4.569,4.051,6.809,9.739,6.809,17.065V61.074H62.233v-7.5H61.8C57.752,59.781,51.8,62.805,44.048,62.805Zm1.638-9.223a16.339,16.339,0,0,0,11.377-4.654,14.464,14.464,0,0,0,5.17-11.118c-2.843-2.327-7.153-3.534-12.928-3.534-4.913,0-8.62,1.035-11.118,3.189a9.719,9.719,0,0,0-3.792,7.5,7.135,7.135,0,0,0,3.454,6.282,13.759,13.759,0,0,0,7.837,2.327Z" transform="translate(92.471 19.682)" fill="#757575"/>
        <path id="Shape-4" data-name="Shape" d="M45.871,60.6H35.7V6.551h9.739v8.791h.432A13.524,13.524,0,0,1,52.247,8.1a18.19,18.19,0,0,1,9.309-2.845A19.634,19.634,0,0,1,69.141,6.55l-3.88,9.494a15.1,15.1,0,0,0-5.429-.776,13.136,13.136,0,0,0-9.74,4.389,15.617,15.617,0,0,0-4.223,11.377Z" transform="translate(138.395 20.162)" fill="#757575"/>
        <path id="Shape-5" data-name="Shape" d="M70.179,62.733a26.64,26.64,0,0,1-20-8.188,28.561,28.561,0,0,1-7.843-20.6,28.561,28.561,0,0,1,7.843-20.6,26.322,26.322,0,0,1,20-8.188,24.552,24.552,0,0,1,15,4.4,25.551,25.551,0,0,1,8.707,11.12l-9.307,3.878A15.062,15.062,0,0,0,69.493,14.381,15.783,15.783,0,0,0,57.6,19.893a19.77,19.77,0,0,0-5.17,14.049A19.77,19.77,0,0,0,57.6,47.994,15.783,15.783,0,0,0,69.49,53.505c7.585,0,12.755-3.368,15.685-10.169l9.05,3.878a26.322,26.322,0,0,1-8.88,11.118,25.447,25.447,0,0,1-15.166,4.4Z" transform="translate(164.161 19.748)" fill="#757575"/>
        <path id="Shape-6" data-name="Shape" d="M64.381.424V25.331l-.43,7.5h.43a17.778,17.778,0,0,1,6.982-6.55,20.164,20.164,0,0,1,10.171-2.672c6.723,0,11.807,2.068,15.341,6.205s5.258,9.646,5.258,16.547V79.373H91.961V47.834c0-10-4.481-15-13.358-15a12.417,12.417,0,0,0-10.258,5A18.129,18.129,0,0,0,64.38,49.472v29.9H54.212V.424Z" transform="translate(210.294 1.387)" fill="#757575"/>
      </g>
      <g id="XMLID_39_" transform="translate(332.232 0)">
        <path id="Shape-7" data-name="Shape" d="M41.172,82.608A39.7,39.7,0,0,1,11.953,70.8,40.018,40.018,0,0,1,.146,41.325,40.156,40.156,0,0,1,11.953,11.848,39.7,39.7,0,0,1,41.172.041,36.679,36.679,0,0,1,70.215,12.969l-7.067,6.809C57.8,13.054,50.479,9.786,41.172,9.786a30.108,30.108,0,0,0-21.8,8.705c-5.948,5.769-8.872,13.439-8.872,22.834s2.93,17.065,8.88,22.84a30.108,30.108,0,0,0,21.8,8.7c9.48,0,17.582-3.792,24.3-11.463l7.067,7.067A39.62,39.62,0,0,1,59.011,78.811a41.447,41.447,0,0,1-17.84,3.8Z" transform="translate(-0.132 -0.025)" fill="#757575"/>
        <path id="Shape-8" data-name="Shape" d="M23.608,13.363a26.323,26.323,0,0,1,20-8.188A26.64,26.64,0,0,1,63.6,13.363a28.562,28.562,0,0,1,7.843,20.6A28.563,28.563,0,0,1,63.6,54.56a26.322,26.322,0,0,1-20,8.188,26.64,26.64,0,0,1-20-8.188,28.563,28.563,0,0,1-7.843-20.6,28.422,28.422,0,0,1,7.845-20.6ZM31.11,48.1a17.085,17.085,0,0,0,24.821,0,19.121,19.121,0,0,0,5.258-14.135,19.121,19.121,0,0,0-5.258-14.135,17.085,17.085,0,0,0-24.821,0,19.123,19.123,0,0,0-5.258,14.135A19.982,19.982,0,0,0,31.107,48.09Z" transform="translate(60.523 19.92)" fill="#757575"/>
        <path id="Shape-9" data-name="Shape" d="M38.345,6.9v7.5h.43a17.778,17.778,0,0,1,6.982-6.55A20.165,20.165,0,0,1,55.927,5.177c6.723,0,11.807,2.068,15.341,6.205s5.258,9.646,5.258,16.547V60.939H66.355V29.4c0-10-4.481-15-13.358-15a12.418,12.418,0,0,0-10.258,5,18.129,18.129,0,0,0-3.965,11.636V60.93H28.606V6.9Z" transform="translate(110.426 19.929)" fill="#757575"/>
        <path id="Shape-10" data-name="Shape" d="M63.182,62.73a24.115,24.115,0,0,1-14.911-4.4A25.614,25.614,0,0,1,39.653,47.3l9.05-3.8c2.843,6.809,7.756,10.169,14.652,10.169a13.308,13.308,0,0,0,7.756-2.062A6.521,6.521,0,0,0,74.127,46.1c0-3.534-2.5-5.947-7.412-7.153L55.77,36.27a26.588,26.588,0,0,1-9.825-5,12.11,12.11,0,0,1-4.654-10A13.79,13.79,0,0,1,47.669,9.638,25.179,25.179,0,0,1,62.752,5.157,25.083,25.083,0,0,1,75.507,8.432a17.686,17.686,0,0,1,8.015,9.309L74.731,21.36c-1.983-4.746-6.124-7.153-12.325-7.153A13.961,13.961,0,0,0,54.821,16.1a5.747,5.747,0,0,0-3.1,5.085c0,3.1,2.413,5.172,7.153,6.291l10.688,2.5a20.859,20.859,0,0,1,11.29,6.034,14.681,14.681,0,0,1,3.619,9.739A15.171,15.171,0,0,1,78.523,57.9C74.559,61.177,69.387,62.73,63.182,62.73Z" transform="translate(153.332 19.853)" fill="#757575"/>
        <path id="Shape-11" data-name="Shape" d="M57.455,13.363a26.322,26.322,0,0,1,20-8.188,26.64,26.64,0,0,1,20,8.188,28.561,28.561,0,0,1,7.843,20.6,28.563,28.563,0,0,1-7.843,20.6,26.322,26.322,0,0,1-20,8.188,26.64,26.64,0,0,1-20-8.188,28.563,28.563,0,0,1-7.843-20.6,28.422,28.422,0,0,1,7.843-20.6ZM65.039,48.09a17.085,17.085,0,0,0,24.821,0,19.121,19.121,0,0,0,5.258-14.135A19.121,19.121,0,0,0,89.86,19.821a17.085,17.085,0,0,0-24.821,0,19.123,19.123,0,0,0-5.258,14.135A19.257,19.257,0,0,0,65.039,48.09Z" transform="translate(191.983 19.92)" fill="#757575"/>
        <path id="Shape-12" data-name="Shape" d="M72.659,79.37H62.488V.424H72.659Z" transform="translate(242.022 1.489)" fill="#757575"/>
        <path id="Shape-13" data-name="Shape" d="M93.653,62.8a26.052,26.052,0,0,1-19.9-8.188,29.025,29.025,0,0,1-7.67-20.6,30.183,30.183,0,0,1,7.412-20.34,24.164,24.164,0,0,1,19.041-8.54c8.015,0,14.392,2.586,19.219,7.843s7.24,12.239,7.24,20.943l-.086,1.9H76.244a18.608,18.608,0,0,0,5.431,12.928A16.416,16.416,0,0,0,93.4,53.494c7.24,0,12.239-3.1,14.823-9.309l9.05,3.792a23.731,23.731,0,0,1-8.7,10.515A24.78,24.78,0,0,1,93.653,62.8Zm14.569-35.258A14.493,14.493,0,0,0,104,18.755c-2.586-2.756-6.464-4.223-11.636-4.223a14.559,14.559,0,0,0-9.739,3.534,17.974,17.974,0,0,0-5.688,9.48Z" transform="translate(255.932 19.785)" fill="#757575"/>
      </g>
    </g>
    <g id="XMLID_37_" transform="translate(3470 -2508)">
      <path id="Shape-14" data-name="Shape" d="M.124,45.266C.124,20.355,21.062.02,46.061.02a43.2,43.2,0,0,1,31.026,12.5l-8.705,8.705A31.359,31.359,0,0,0,46.06,12.43a32.409,32.409,0,0,0-32.4,32.836A32.409,32.409,0,0,0,46.061,78.1c11.807,0,18.526-4.746,22.84-9.05,3.534-3.534,5.861-8.618,6.723-15.512H46.061V41.217H87.688a41.136,41.136,0,0,1,.689,7.756c0,9.309-2.5,20.77-10.687,28.872-7.929,8.268-18.1,12.669-31.539,12.669C21.062,90.429.124,70.175.124,45.266Z" transform="translate(-0.124 -0.015)" fill="#4285f4"/>
      <path id="Shape-15" data-name="Shape" d="M48.3,6.62A28.684,28.684,0,0,0,19.077,35.751,28.736,28.736,0,0,0,48.3,64.882,28.738,28.738,0,0,0,77.512,35.751,28.684,28.684,0,0,0,48.3,6.62Zm0,46.713c-8.791,0-16.462-7.24-16.462-17.668C31.834,25.15,39.419,18,48.3,18c8.791,0,16.462,7.153,16.462,17.668,0,10.428-7.674,17.667-16.462,17.667Z" transform="translate(73.486 25.619)" fill="#db4437"/>
      <path id="Shape-16" data-name="Shape" d="M61.353,6.62A28.684,28.684,0,0,0,32.136,35.751,28.736,28.736,0,0,0,61.353,64.882,28.738,28.738,0,0,0,90.568,35.751,28.684,28.684,0,0,0,61.353,6.62Zm0,46.713c-8.791,0-16.462-7.24-16.462-17.668C44.891,25.15,52.476,18,61.353,18S77.815,25.15,77.815,35.663c0,10.429-7.67,17.668-16.462,17.668Z" transform="translate(124.205 25.619)" fill="#f4b400"/>
      <path id="Shape-17" data-name="Shape" d="M88.891,8.412v4.746h-.432A20.027,20.027,0,0,0,73.119,6.6c-14.566,0-27.925,12.755-27.925,29.217,0,16.289,13.358,29.044,27.925,29.044a19.778,19.778,0,0,0,15.341-6.636h.432V62.45c0,11.118-5.947,17.065-15.514,17.065A16.051,16.051,0,0,1,58.725,69.173L47.607,73.827A27.761,27.761,0,0,0,73.463,91.065c15,0,27.666-8.791,27.666-30.337V8.412ZM74.239,53.4c-8.791,0-16.2-7.412-16.2-17.582,0-10.258,7.412-17.76,16.2-17.76,8.7,0,15.512,7.5,15.512,17.76C89.839,46.075,82.943,53.4,74.239,53.4Z" transform="translate(174.926 25.549)" fill="#4285f4"/>
      <rect id="Rectangle-path" width="12.755" height="85.583" transform="translate(284.846 3.108)" fill="#0f9d58"/>
      <path id="Shape-18" data-name="Shape" d="M91.2,53.328c-6.55,0-11.118-3.016-14.134-8.791l38.956-16.116-1.292-3.275c-2.413-6.55-9.825-18.526-24.908-18.526-15,0-27.493,11.807-27.493,29.131A28.5,28.5,0,0,0,91.2,64.878a29.16,29.16,0,0,0,24.3-12.928L105.6,45.315C102.236,50.139,97.754,53.328,91.2,53.328Zm-.948-35.509c5.085,0,9.394,2.5,10.772,6.205L75,34.8A15.984,15.984,0,0,1,90.255,17.821Z" transform="translate(241.475 25.623)" fill="#db4437"/>
    </g>
  </g>
</svg>
